<svg width="170" height="55" xmlns="http://www.w3.org/2000/svg" class="ionicon">
 <title>GitHub logo</title>
 <g id="Layer_1">
  <title>Layer 1</title>
  <rect rx="10" id="svg_1" height="55" width="170" y="0.25" x="0" stroke-width="0" stroke="#000" fill="#17202a"/>
  <g stroke="null">
   <path stroke="null" fill="#1877f2" fill-rule="evenodd" d="m45.00003,27.61042c0,-10.15579 -8.05983,-18.39044 -18.00002,-18.39044s-18.00002,8.23465 -18.00002,18.39044c0,9.1788 6.58126,16.78703 15.18751,18.16795l0,-12.85032l-4.57152,0l0,-5.31763l4.57152,0l0,-4.05164c0,-4.60828 2.68795,-7.15585 6.79902,-7.15585c1.96956,0 4.02991,0.3596 4.02991,0.3596l0,4.52618l-2.27089,0c-2.23473,0 -2.93384,1.41705 -2.93384,2.87351l0,3.44821l4.99179,0l-0.79714,5.31763l-4.19384,0l0,12.85196c8.60626,-1.3801 15.18751,-8.98833 15.18751,-18.16959z"/>
  </g>
  <text transform="matrix(1 0 0 1 0 0)" xml:space="preserve" text-anchor="start" font-family="'Kufam'" font-size="25" id="svg_5" y="34.77402" x="48" stroke-width="0" stroke="#000" fill="#f9fafe">Facebook</text>
 </g>

</svg>