<svg width="170" height="55" xmlns="http://www.w3.org/2000/svg" class="ionicon">
 <title>Linux logo</title>
 <g id="Layer_1">
  <title>Layer 1</title>
  <path id="svg_1" d="m0,10c0,-5.43379 4.56621,-10 10,-10l150,0c5.43379,0 10,4.56621 10,10l0,35c0,5.43379 -4.56621,10 -10,10l-150,0c-5.43379,0 -10,-4.56621 -10,-10l0,-35z" opacity="undefined" stroke-width="0" stroke="#000" fill="#17202a"/>
  <g stroke="null">
   <path stroke="null" fill="#000000" d="m43.39404,41.16121c-0.12385,-0.07241 -0.24177,-0.14115 -0.33932,-0.20164c-0.54885,-0.35104 -1.1028,-0.96421 -1.00524,-1.63421c0.20529,-1.46098 0.24516,-2.15115 -0.04157,-2.63875a1.32421,1.43074 0 0 0 -0.65065,-0.56826l0,-0.0055c0.11961,-0.23464 0.19172,-0.51877 0.24007,-0.92755c0.12216,-1.00821 -0.42415,-4.03283 -1.16218,-6.48002c-0.68543,-2.26205 -2.48045,-4.58276 -3.79193,-6.28388l-0.30624,-0.39778c-2.02575,-2.65159 -2.06478,-3.50031 -2.25225,-7.57714c-0.02715,-0.59301 -0.05853,-1.26484 -0.09925,-2.01641c-0.24431,-4.59651 -2.43888,-6.9273 -6.51075,-6.9273c-2.13773,0 -3.78514,0.65533 -4.89642,1.94859c-0.88987,1.03479 -1.38104,2.45086 -1.38104,3.98883c0,2.70566 0.16966,4.85773 0.18239,4.97596c0.11876,3.27209 0.08483,3.77803 -0.70494,5.27476c-0.18917,0.3602 -0.71088,0.99629 -1.26313,1.66904c-0.71936,0.87714 -1.53459,1.87068 -1.98164,2.67817c-0.31981,0.57834 -0.4988,1.15761 -0.68798,1.7717c-0.28842,0.9358 -0.61587,1.99625 -1.53968,3.35183c-1.06632,1.56455 -1.31657,2.71391 -0.93314,4.34904c-0.41906,0.59118 -0.40973,1.31709 -0.40295,1.85418a2.19202,2.36837 0 0 1 -0.02545,0.55818c-0.19426,0.69566 -1.0536,0.86156 -1.86627,0.93305c-0.13403,0.011 -0.26297,0.01925 -0.38598,0.02658c-0.61587,0.03575 -1.14776,0.06782 -1.45315,0.57743c-0.29436,0.49127 -0.09501,1.26484 0.18154,2.33537c0.06108,0.23647 0.12385,0.48119 0.18578,0.73874c0.15524,0.64159 -0.01357,0.96055 -0.22735,1.36016c-0.20699,0.38587 -0.44197,0.8249 -0.44197,1.60855c0,1.34458 1.69661,1.64979 3.65196,2.01092c0.62435,0.11365 1.27246,0.23189 1.91972,0.38862a19.13609,20.67558 0 0 1 2.89103,0.97888c0.82455,0.34187 1.47605,0.61226 2.24207,0.61226c1.37256,0 2.39646,-0.89547 3.38644,-1.7607l0.18239,-0.1604c0.46911,-0.41153 1.82386,-0.36662 2.91308,-0.33362c0.29351,0.00917 0.57091,0.01833 0.81862,0.01833l0.52765,0c1.14352,-0.00733 2.70949,-0.0165 3.5824,0.22914c0.31811,0.09166 0.52595,0.34096 0.78808,0.659c0.49796,0.60126 1.11722,1.35191 2.83249,1.35191c1.64487,0 2.50674,-0.79832 3.5052,-1.72312c0.60739,-0.56185 1.23513,-1.14386 2.1267,-1.63696c0.33254,-0.18331 0.64641,-0.35471 0.93992,-0.51419c1.92056,-1.04304 2.9784,-1.61771 2.9784,-2.54985c0,-0.9083 -1.03833,-1.51231 -1.72545,-1.91193zm-19.72736,-29.02445a1.17999,1.27492 0 0 1 1.05784,0.8249c0.16542,0.50869 0.15354,0.95505 0.01781,1.18602c0,0 -0.01866,-0.09166 -0.03054,-0.13198a1.25973,1.36108 0 0 0 -0.54631,-0.78732a0.96283,1.04029 0 0 0 -0.75839,-0.13473c-0.36138,0.10357 -0.71343,0.45828 -0.75584,1.7222c-0.43773,-0.95963 -0.19596,-1.64979 0.07804,-2.10807c0.19596,-0.34187 0.63368,-0.58018 0.93738,-0.57101zm-1.48454,34.3707c-0.13658,1.45365 -1.56173,1.43165 -1.99522,1.39408c-0.83219,-0.07516 -1.83743,-0.42986 -2.81044,-0.77265c-0.38343,-0.13473 -0.77959,-0.27497 -1.16472,-0.39778c-1.11976,-0.35654 -2.5551,-0.61776 -3.70879,-0.8249c-0.27315,-0.05041 -0.53189,-0.09715 -0.76772,-0.14207s-0.39107,-0.1164 -0.44112,-0.21081c-0.08483,-0.15123 0.03224,-0.48119 0.16372,-0.86248c0.17645,-0.5096 0.41737,-1.21168 0.40804,-2.06774c0,-0.35837 -0.1247,-0.76074 -0.24092,-1.15119c-0.13743,-0.45828 -0.27824,-0.93213 -0.16372,-1.15669c0.10434,-0.20439 0.57261,-0.22822 0.98403,-0.22822l0.19172,0c0.30115,0 0.56158,0.0055 0.74227,-0.04858c0.55225,-0.1659 1.26058,-0.63425 1.51083,-1.27217c0.07635,-0.19889 0.11622,-0.63609 0.16966,-1.28317c0.03139,-0.37762 0.06277,-0.76715 0.10349,-0.96971a0.30115,0.32538 0 0 1 0.17899,-0.23372c0.13997,-0.07057 0.57515,-0.17506 1.58039,0.37395c0.94841,0.51785 1.94092,2.36837 2.90121,4.1584c0.302,0.56276 0.58703,1.09436 0.87376,1.59113c1.19102,2.06591 1.59736,2.8963 1.48454,4.10615l0,-0.00183zm10.92957,-2.89264a5.83126,6.30038 0 0 1 -0.38598,0.99904a0.0492,0.05316 0 0 1 -0.09162,-0.0385a4.80226,5.1886 0 0 0 0.17899,-1.68921c-0.02121,-0.43353 -0.03393,-0.69566 -0.22565,-0.77999s-0.36138,0.07607 -0.80165,0.50777c-0.09331,0.09166 -0.2002,0.19614 -0.32066,0.31163c-0.91617,0.86797 -2.28025,1.89543 -4.71743,2.14198c-1.42855,0.14573 -2.34048,-0.42436 -2.62296,-0.74607a0.18323,0.19798 0 0 0 -0.26043,-0.00733a0.18917,0.20439 0 0 0 -0.04326,0.20989c0.17984,0.62692 0.1018,1.12369 -0.04157,1.4839c-0.08059,0.20164 -0.15694,0.18789 -0.16966,-0.03116c-0.02121,-0.42528 -0.08483,-0.90555 -0.25449,-1.30059c-0.26382,-0.63609 -0.59381,-1.31434 -0.75414,-1.6388l0,-0.00458c0.27485,-0.13657 0.7516,-0.44269 0.96452,-0.99721s0.38004,-1.64979 -0.83304,-2.90914c-0.53274,-0.55451 -1.87476,-1.5728 -3.05899,-2.47469c-0.92465,-0.70116 -1.88069,-1.42615 -2.00624,-1.60488c-0.38089,-0.53985 -0.54037,-0.85239 -0.58872,-1.80102c0.00594,-0.21081 0.01103,-0.4207 0.01612,-0.6315l0.0229,-0.22822a0.0492,0.05316 0 0 1 0.09756,0a5.35027,5.78069 0 0 0 0.16966,0.89089c0.09162,0.34187 0.20359,0.69475 0.30709,0.84139c0.27061,0.38678 0.64132,0.67733 0.98997,0.77815a0.46487,0.50227 0 0 0 0.42415,-0.06599c0.24855,-0.21356 0.2248,-0.69658 0.18578,-1.49765c-0.03987,-0.8249 -0.09416,-1.95592 0.15694,-3.16669c0.47675,-2.29138 0.9255,-2.97971 1.49387,-3.84952c0.07295,-0.11182 0.14845,-0.22639 0.2248,-0.34737c0.12216,-0.19064 0.25449,-0.37579 0.39616,-0.57101c0.63368,-0.88081 1.35135,-1.87802 1.18084,-3.75328c-0.04326,-0.47569 -0.06447,-0.80932 -0.07295,-1.04395a0.08483,0.09166 0 0 1 0.15948,-0.05408l0.04157,0.07057l0.10265,0.18331c0.41228,0.73324 1.15709,2.06866 2.12925,2.06866a1.15539,1.24834 0 0 0 0.2002,-0.01925c1.98419,-0.3602 4.40271,-2.77257 4.42561,-2.7964c0.26467,-0.27497 0.24092,-0.56276 0.13912,-0.72499a0.43942,0.47477 0 0 0 -0.54716,-0.15765c-0.27909,0.12832 -0.60569,0.28871 -0.9518,0.45828c-1.17236,0.57468 -3.13873,1.53522 -3.58409,1.31434a1.96044,2.11815 0 0 1 -0.53613,-0.47019a0.08483,0.09166 0 0 1 0.09671,-0.15123c0.4742,0.20989 0.81013,0.1329 1.20459,-0.00733l0.08483,-0.03116c0.79486,-0.28321 1.20459,-0.4372 2.60939,-1.10719a8.27523,8.94097 0 0 1 1.37935,-0.54352c0.33932,-0.09166 0.54461,-0.1494 0.65404,-0.39778a0.56412,0.60951 0 0 0 -0.04242,-0.6535c-0.12979,-0.1714 -0.34526,-0.23555 -0.59381,-0.17414c-0.27315,0.06874 -0.3987,0.27497 -0.54376,0.41153c-0.20359,0.18789 -0.42415,0.38129 -1.45824,0.79282c-2.29043,0.91655 -2.93344,0.97246 -3.83519,0.31438c-0.83473,-0.61317 -1.28518,-1.2126 -1.28518,-1.46648c0,-0.19523 0.46233,-0.52243 0.73887,-0.71858c0.11282,-0.07974 0.21971,-0.1549 0.30709,-0.22547c0.36816,-0.29513 1.1028,-1.04395 1.13503,-1.07512c0.45809,-0.49585 1.51932,-0.19981 2.12077,0.23647a0.18917,0.20439 0 0 0 0.14591,0.03758a0.18154,0.19614 0 0 0 0.14252,-0.23647c-0.35629,-1.6003 -0.01103,-2.50585 0.33932,-2.98338a1.91547,2.06957 0 0 1 1.48284,-0.77724c1.08668,0 1.84591,0.91655 1.84591,2.23822c0,1.00821 -0.23922,1.53889 -0.46487,1.8606a0.14676,0.15856 0 0 1 -0.21886,0.0165a0.151,0.16315 0 0 1 -0.02036,-0.20164a2.08768,2.25563 0 0 0 0.28418,-1.14661a1.40649,1.51964 0 0 0 -1.42855,-1.52789c-0.33423,0 -1.14352,0.13748 -1.42261,1.41516a2.5288,2.73224 0 0 0 -0.02884,1.01462l0.00679,0.06508c0.07635,0.67642 1.29791,1.14661 2.30994,1.42157c0.96368,0.26122 1.1028,0.5701 0.7499,1.79919s0.26382,2.40412 0.48353,2.71024a6.64224,7.1766 0 0 1 0.70494,1.14294a7.95711,8.59726 0 0 1 0.56158,1.51048c0.18408,0.62234 0.34356,1.15944 0.90175,1.94492c0.93907,1.31983 1.49811,4.45811 1.27246,7.14911c-0.01781,0.22089 -0.04496,0.3932 -0.06532,0.51969c-0.03648,0.23189 -0.06108,0.38495 0.05599,0.4931s0.26806,0.06416 0.61587,-0.05774l0.29097,-0.0999a9.27453,10.02066 0 0 1 1.06717,-0.25663a0.18239,0.19706 0 0 0 0.13488,-0.10632c0.29097,-0.63334 0.3266,-1.39499 0.33932,-2.05949q0,-0.12007 0.00509,-0.25572c0.01612,-0.71216 0.03817,-1.73503 -0.25025,-2.93297a0.08483,0.09166 0 0 1 0.16372,-0.05866a7.88925,8.52393 0 0 1 0.56497,2.34179c0.21632,2.06957 -0.16118,2.94122 -0.16457,2.94855a0.13658,0.14756 0 0 0 0.08059,0.20622a1.4523,1.56914 0 0 1 0.58957,0.42803c0.12385,0.15215 0.07889,0.21997 -0.09671,0.14848a3.07596,3.32342 0 0 0 -1.08329,-0.20989c-0.88224,0 -1.53459,0.45369 -1.82471,0.84231c-0.27061,0.36112 -0.31387,0.703 -0.3249,1.03295l-0.00509,0.00458c-0.63453,-0.06874 -1.09771,0.1109 -1.48199,0.56918l-0.00679,0.00825c-0.53104,0.71033 -0.33932,2.25747 -0.10943,3.52689c0.10858,0.59118 0.4742,2.33904 0.14676,3.45357l0,-0.00183zm8.15222,0.92297c-1.33269,0.61501 -2.15724,1.32992 -2.88424,1.9605c-0.47929,0.4152 -0.93314,0.80748 -1.46587,1.11269c-0.85849,0.48944 -2.11313,0.59851 -2.82231,-0.70575c-0.20105,-0.36662 -0.06023,-0.90372 0.13403,-1.64521c0.25873,-0.98529 0.61333,-2.33354 0.31472,-4.0924c-0.07974,-0.46927 -0.15015,-0.87164 -0.21123,-1.21993c-0.23753,-1.35741 -0.33084,-1.86793 -0.23753,-2.27397c0.05344,-0.22456 0.29097,-0.27497 0.49796,-0.27497a1.76702,1.90918 0 0 1 0.2231,0.01741a2.50335,2.70475 0 0 0 0.59381,1.10903c0.48353,0.5371 1.15624,0.80932 1.99861,0.81115c0.17814,0.01558 2.20051,0.14207 3.09971,-2.05308c0.12385,0.0165 0.30963,0.06416 0.36477,0.21081c0.10858,0.29238 -0.0229,0.81665 -0.12894,1.23735c-0.07635,0.30338 -0.14252,0.5646 -0.13827,0.76715c0.0263,1.46648 0.93314,2.08791 2.19117,2.94763c0.15185,0.10357 0.31048,0.21172 0.47081,0.32446s0.24346,0.21906 0.24346,0.31071c-0.04411,0.43903 -1.69661,1.20618 -2.24377,1.45823l0,-0.00183z"/>
  </g>
  <text transform="matrix(1 0 0 1 0 0)" xml:space="preserve" text-anchor="start" font-family="'Kufam'" font-size="21" id="svg_4" y="32.69573" x="52" stroke-width="0" stroke="#000" fill="#f9fafe">GNU/Linux</text>
 </g>

</svg>