<svg width="170" height="55" xmlns="http://www.w3.org/2000/svg">
 <title>Python logo</title>

 <g>
  <title>Layer 1</title>
  <rect rx="10" id="svg_5" height="55" width="170" y="0" x="0" stroke-width="0" stroke="#000" fill="#17202a"/>
  <g id="svg_1" stroke="null">
   <path id="svg_2" d="m33.51294,6.01099c-1.81371,-0.29941 -4.46841,-0.43738 -6.27041,-0.42857a30.35105,30.43919 0 0 0 -5.04013,0.42857c-4.46256,0.78278 -5.27526,2.41682 -5.27526,5.43442l0,3.53032l10.92712,0l0,1.56555l-14.47648,0c-4.05474,0 -7.34556,4.86005 -7.37776,10.87275l0,0.08611a15.89408,15.94024 0 0 0 0.30537,3.1311c0.90637,4.52835 3.72985,7.82775 7.07238,7.82775l1.98835,0l0,-5.28373c0,-3.06261 2.03322,-5.86592 5.366,-6.46768l0.96295,-0.12035l11.81787,0a5.46844,5.48432 0 0 0 1.46931,-0.19569a5.12014,5.135 0 0 0 3.79912,-4.98921l0,-9.9569c0,-2.82973 -2.40787,-4.96377 -5.26843,-5.43442l0,-0.00002zm-11.61689,6.76318a1.98737,1.99314 0 1 1 1.98054,-1.98629a1.97956,1.98531 0 0 1 -1.98054,1.98629z" fill="#ffde57" stroke="null"/>
   <path id="svg_4" d="m49.24799,23.6841c-1.04393,-4.16926 -3.74742,-7.14282 -6.91726,-7.14282l-1.72785,0l0,4.64283c0,3.8718 -2.53665,6.67511 -5.63332,7.15554a6.19919,6.21719 0 0 1 -0.94539,0.07339l-11.8208,0a5.85381,5.87081 0 0 0 -1.48589,0.1908c-2.17664,0.57338 -3.79034,2.38942 -3.79034,4.7446l0,9.95788c0,2.83756 2.843,4.50096 5.63234,5.31406c3.33765,0.97358 6.97384,1.1497 10.9681,0c2.65275,-0.76027 5.2538,-2.29744 5.2538,-5.31406l0,-3.28178l-10.92712,0l0,-1.56555l14.47648,0c2.87227,0 5.36112,-2.43932 6.58066,-5.99899a15.30089,15.34533 0 0 0 0.79709,-4.95986a15.67261,15.71812 0 0 0 -0.4605,-3.81603l0,-0.00001zm-15.49017,18.29737a1.98737,1.99314 0 1 1 -1.98054,1.98629a1.97956,1.98531 0 0 1 1.98054,-1.98629z" fill="#4584b6" stroke="null"/>
  </g>
  <text fill="#f9fafe" stroke="null" x="55" y="38.76233" id="svg_3" stroke-width="0" font-size="30" font-family="'Roboto Mono'" text-anchor="start" xml:space="preserve">Python</text>
 </g>
</svg>