<svg width="170" height="55" xmlns="http://www.w3.org/2000/svg" class="ionicon">
 <title>Twitter logo</title>
 <g id="Layer_1">
  <title>Layer 1</title>
  <rect rx="10" id="svg_1" height="55" width="170" y="0" x="0" stroke-width="0" stroke="#000" fill="#17202a"/>
  <g stroke="null">
   <path fill="#1da1f2" stroke="null" d="m56.00198,13.24648a19.27835,19.63379 0 0 1 -5.40233,1.48859a9.31532,9.48707 0 0 0 4.1394,-5.21492a18.89049,19.23878 0 0 1 -5.97648,2.28639a9.47104,9.64566 0 0 0 -6.8697,-2.98691c-5.19885,0 -9.40608,4.22253 -9.40608,9.42772a8.90454,9.06871 0 0 0 0.24265,2.15018a26.81582,27.31024 0 0 1 -19.39299,-9.85581a9.14145,9.31 0 0 0 -1.27917,4.73819c0,3.26906 1.67468,6.15867 4.20341,7.85157a9.31437,9.4861 0 0 1 -4.27792,-1.17725l0,0.11675c0,4.57279 3.24809,8.37696 7.54703,9.24287a9.6258,9.80328 0 0 1 -2.4781,0.3308a9.01631,9.18254 0 0 1 -1.7683,-0.17513c1.1951,3.74579 4.67342,6.47001 8.79372,6.54784a19.06723,19.41878 0 0 1 -11.68547,4.03767a19.39299,19.75055 0 0 1 -2.245,-0.13621a26.62285,27.1137 0 0 0 14.40049,4.26145c17.32568,0 26.79099,-14.37022 26.79099,-26.8335c0,-0.40863 -0.01051,-0.81726 -0.02961,-1.21617a18.96119,19.31078 0 0 0 4.69349,-4.88413z"/>
  </g>
  <text xml:space="preserve" text-anchor="start" font-family="'Kufam'" font-size="30" id="svg_3" y="34.86384" x="61.16674" stroke-width="0" stroke="#000" fill="#f9fafe">Twitter</text>
 </g>

</svg>