<svg width="170" height="55" xmlns="http://www.w3.org/2000/svg" class="ionicon">
 <title>Bitcoin logo</title>

 <g id="Layer_1">
  <title>Layer 1</title>
  <rect fill="#17202a" width="170" height="55" id="svg_1" stroke="#000" stroke-width="0" rx="10" y="0" x="0"/>
  <g id="svg_2" stroke="null" transform="rotate(16 22.2076 27.5)">
   <path id="svg_3" d="m33.56473,29.64914c-0.36672,-1.0653 -0.93148,-2.00092 -2.06099,-2.78832a7.19879,9.09214 0 0 0 -1.86296,-0.92635a4.56351,5.76376 0 0 0 1.19552,-1.01899a4.13444,5.22184 0 0 0 1.14418,-2.1584a5.65561,7.1431 0 0 0 0.25671,-2.61231c-0.08068,-1.55627 -0.32272,-3.06622 -0.96815,-4.15005s-1.55491,-1.91755 -2.75776,-2.50115c-0.92414,-0.44465 -1.87029,-0.72255 -3.33719,-0.82445l0,-5.91939l-2.93379,0l0,5.92865l-2.34703,0l0,-5.92865l-3.00713,0l0,5.92865l-6.38613,0l0,4.44649l2.04412,0c0.6381,0 1.07083,0.07411 1.29087,0.21306a0.96962,1.22464 0 0 1 0.47674,0.55581c0.09535,0.23159 0.13935,0.77814 0.13935,1.62111l0,16.04441c0,0.83372 -0.04401,1.371 -0.13935,1.61185s-0.14669,0.45391 -0.37406,0.5836s-0.2347,0.12043 -0.86547,0.12043l-1.9363,0l-0.6359,4.44649l6.38099,0l0,5.92865l3.00713,0l0,-5.92865l2.34703,0l0,5.92865l2.93379,0l0,-5.9657c1.90696,-0.12043 3.26384,-0.43539 4.35668,-0.95414c1.41555,-0.66697 2.50106,-1.63964 3.27851,-2.91801s1.02683,-3.23297 1.09504,-4.74292c0.04914,-1.34321 -0.0022,-3.07549 -0.33445,-4.02036l0,-0.00001zm-13.67659,-11.96846l2.34703,0l0,6.855l-2.34703,0l0,-6.855zm0,19.63865l0,-8.33716l2.34703,0l0,8.33716l-2.34703,0zm5.28082,-19.27737c0.44007,0.23159 0.72611,0.69476 1.01216,1.17647c0.31538,0.52802 0.47674,1.23205 0.47674,1.98239c0,0.72255 -0.2127,1.34321 -0.55009,1.89902c-0.27871,0.45391 -0.49874,0.76887 -0.93881,1.02825l0,-6.08613zm2.11233,17.29498c-0.57209,0.63918 -0.90214,0.93561 -1.62092,1.27836a4.11171,5.19313 0 0 1 -0.49141,0.17601l0,-7.67019a2.98806,3.77396 0 0 1 0.8288,0.31496c0.57209,0.3057 1.11484,0.63918 1.45223,1.22278a3.21397,4.05927 0 0 1 0.58676,2.28809c-0.0022,1.00972 -0.20757,1.77859 -0.75765,2.38999l0.0022,0l-0.00001,0z" stroke="null" fill="#f7931a"/>
  </g>
  <text xml:space="preserve" text-anchor="start" font-family="'Kufam'" font-size="30" id="svg_4" y="37.50215" x="48" stroke-width="0" stroke="#000" fill="#f9fafe">Bitcoin</text>
 </g>
</svg>