<svg width="170" height="55" xmlns="http://www.w3.org/2000/svg">
 <title>Python logo</title>

 <g>
  <title>Layer 1</title>
  <rect rx="10" id="svg_2" height="55" width="170" y="0" x="0" stroke-width="0" stroke="null" fill="#17202a"/>
  <g>
   <metadata id="svg_9">image/svg+xml</metadata>

   <path id="svg_7" clip-rule="evenodd" d="m27.903,6.78626c0.679,-0.381 1.515,-0.381 2.193,0c3.355,1.883 13.451,7.551 16.807,9.434c0.679,0.38 1.097,1.084 1.097,1.846c0,3.766 0,15.101 0,18.867c0,0.762 -0.418,1.466 -1.097,1.847c-3.355,1.883 -13.451,7.551 -16.807,9.434c-0.679,0.381 -1.515,0.381 -2.193,0c-3.355,-1.883 -13.451,-7.551 -16.807,-9.434c-0.678,-0.381 -1.096,-1.084 -1.096,-1.846c0,-3.766 0,-15.101 0,-18.867c0,-0.762 0.418,-1.466 1.097,-1.847c3.354,-1.883 13.452,-7.551 16.806,-9.434z" fill-rule="evenodd" fill="#004482"/>
   <path id="svg_6" clip-rule="evenodd" d="m10.304,37.90426c-0.266,-0.356 -0.304,-0.694 -0.304,-1.149c0,-3.744 0,-15.014 0,-18.759c0,-0.758 0.417,-1.458 1.094,-1.836c3.343,-1.872 13.405,-7.507 16.748,-9.38c0.677,-0.379 1.594,-0.371 2.271,0.008c3.343,1.872 13.371,7.459 16.714,9.331c0.27,0.152 0.476,0.335 0.66,0.576l-37.183,21.209z" fill-rule="evenodd" fill="#659ad2"/>
   <path id="svg_5" clip-rule="evenodd" d="m29,13.50026c7.727,0 14,6.273 14,14c0,7.727 -6.273,14 -14,14c-7.727,0 -14,-6.273 -14,-14c0,-7.727 6.273,-14 14,-14zm0,7c3.863,0 7,3.136 7,7c0,3.863 -3.137,7 -7,7c-3.863,0 -7,-3.137 -7,-7c0,-3.864 3.136,-7 7,-7z" fill-rule="evenodd" fill="#ffffff"/>
   <path id="svg_4" clip-rule="evenodd" d="m47.485,16.70526c0.516,0.483 0.506,1.211 0.506,1.784c0,3.795 -0.032,14.589 0.009,18.384c0.004,0.396 -0.127,0.813 -0.323,1.127l-19.084,-10.5l18.892,-10.795z" fill-rule="evenodd" fill="#00599c"/>
  </g>
  <text transform="matrix(1 0 0 0.974377 0 0.195503)" stroke="null" font-weight="bold" xml:space="preserve" text-anchor="start" font-family="'Kufam'" font-size="30" id="svg_11" y="37.43356" x="75.28041" stroke-width="0" fill="#f9fafe">C</text>
 </g>
</svg>