<svg width="170" height="55" xmlns="http://www.w3.org/2000/svg" class="ionicon">
 <title>GitHub logo</title>
 <g id="Layer_1">
  <title>Layer 1</title>
  <rect rx="10" id="svg_1" height="55" width="170" y="0.25" x="0" stroke-width="0" stroke="#000" fill="#17202a"/>
  <g stroke="null">
   <path stroke="null" d="m26.75166,9.66571c-9.89485,0 -17.91791,8.19262 -17.91791,18.2881c0,8.08116 5.1354,14.92825 12.25457,17.34861a1.40464,1.39808 0 0 0 0.30396,0.03185c0.66392,0 0.91989,-0.48567 0.91989,-0.90764c0,-0.4379 -0.016,-1.58438 -0.024,-3.11304a8.19105,8.15281 0 0 1 -1.80779,0.21497c-3.4476,0 -4.23151,-2.66718 -4.23151,-2.66718c-0.81591,-2.10986 -1.99177,-2.67514 -1.99177,-2.67514c-1.55982,-1.09076 -0.008,-1.1226 0.11199,-1.1226l0.008,0c1.79979,0.15923 2.74368,1.89489 2.74368,1.89489c0.8959,1.5605 2.09576,1.99839 3.16763,1.99839a5.03941,5.01589 0 0 0 2.04776,-0.4777c0.15998,-1.17834 0.62393,-1.98247 1.13587,-2.44425c-3.97554,-0.46178 -8.15905,-2.03024 -8.15905,-9.03657c0,-1.99839 0.69592,-3.63055 1.83979,-4.90443c-0.18398,-0.46178 -0.79991,-2.32483 0.17598,-4.84073a1.49103,1.48407 0 0 1 0.39995,-0.03981c0.64792,0 2.11175,0.24681 4.52747,1.91878a16.65486,16.57712 0 0 1 8.97496,0c2.41572,-1.67196 3.87955,-1.91878 4.52747,-1.91878a1.49103,1.48407 0 0 1 0.39995,0.03981c0.97589,2.51591 0.35996,4.37895 0.17598,4.84073c1.14387,1.28184 1.83979,2.91399 1.83979,4.90443c0,7.02225 -4.19151,8.56682 -8.18305,9.02064c0.63993,0.56528 1.21586,1.67993 1.21586,3.38374c0,2.44425 -0.024,4.41876 -0.024,5.01589c0,0.42993 0.24797,0.9156 0.91189,0.9156a1.54782,1.5406 0 0 0 0.31996,-0.03185c7.12717,-2.42037 12.25457,-9.27542 12.25457,-17.34861c0,-10.09548 -8.02307,-18.2881 -17.91791,-18.2881z"/>
  </g>
  <text font-weight="normal" xml:space="preserve" text-anchor="start" font-family="'Kufam'" font-size="30" id="svg_4" y="35.02382" x="53.51582" stroke-width="0" stroke="#000" fill="#f9fafe">GitHub</text>
 </g>

</svg>