<svg width="170" height="54.99999999999999" xmlns="http://www.w3.org/2000/svg" class="ionicon">
 <title>JavaScript logo</title>
 <g id="Layer_1">
  <title>Layer 1</title>
  <path id="svg_1" d="m0,10c0,-5.43379 4.56621,-10 10,-10l150,0c5.43379,0 10,4.56621 10,10l0,35c0,5.43379 -4.56621,10 -10,10l-150,0c-5.43379,0 -10,-4.56621 -10,-10l0,-35z" opacity="undefined" stroke-width="0" stroke="#000" fill="#17202a"/>
  <g stroke="null">
   <path fill="#f7df1e" stroke="null" d="m6.83329,7.66651l0,39.66699l40.16682,0l0,-39.66699l-40.16682,0zm21.51794,30.81275c0,3.86133 -2.30959,5.74374 -5.65294,5.74374c-3.01968,0 -4.7725,-1.54418 -5.66191,-3.408l3.07348,-1.83725c0.59264,1.0386 1.04272,1.91694 2.33649,1.91694c1.0759,0 1.95993,-0.47901 1.95993,-2.34283l0,-12.46854l3.94496,0l0,12.39593zm8.90753,5.6552c-3.50473,0 -5.7695,-1.56189 -6.87498,-3.71878l3.07796,-1.75934c0.80692,1.30511 1.86041,2.1746 3.72081,2.1746c1.56364,0 2.47187,-0.68355 2.47187,-1.74871c0,-1.27767 -0.93513,-1.73012 -2.66105,-2.47919l-0.9432,-0.40021c-2.72381,-1.14397 -4.52953,-2.5819 -4.52953,-5.61801c0,-2.79528 2.15628,-4.83707 5.52652,-4.83707c2.40015,0 4.12427,0.73667 5.36604,2.89356l-2.94437,1.86913c-0.64733,-1.14485 -1.34487,-1.59376 -2.42615,-1.59376c-1.10548,0 -1.80661,0.6924 -1.80661,1.59376c0,1.11829 0.70113,1.57074 2.31856,2.26314l0.9432,0.39933c3.20886,1.35824 5.01547,2.74481 5.01547,5.85796c0.0009,3.35576 -2.66822,5.10358 -6.25455,5.10358z"/>
  </g>
  <text transform="matrix(1 0 0 1 0 0)" xml:space="preserve" text-anchor="start" font-family="'Kufam'" font-size="22" id="svg_6" y="32.95548" x="55" stroke-width="0" stroke="#000" fill="#f9fafe">JavaScript</text>
 </g>

</svg>