<svg width="170" height="55" xmlns="http://www.w3.org/2000/svg" class="ionicon">
 <title>Nodejs logo</title>
 <g id="Layer_1">
  <title>Layer 1</title>
  <path id="svg_1" d="m0,10c0,-5.43379 4.56621,-10 10,-10l150,0c5.43379,0 10,4.56621 10,10l0,35c0,5.43379 -4.56621,10 -10,10l-150,0c-5.43379,0 -10,-4.56621 -10,-10l0,-35z" opacity="undefined" stroke-width="0" stroke="#000" fill="#17202a"/>
  <g stroke="null">
   <path fill="#68a063" stroke="null" d="m46.99874,15.20286l-16.5017,-9.10215a3.92822,3.61274 0 0 0 -3.89106,0l-16.50277,9.10117a4.05562,3.72991 0 0 0 -1.93651,3.19971l0,18.17793a4.06199,3.73577 0 0 0 1.93651,3.20264l4.32741,2.3766l0.02442,0.01269c2.18494,1.02817 3.02154,1.02817 3.99086,1.02817c3.41224,0 5.53242,-2.03094 5.53242,-5.30096l0,-17.62528a0.90349,0.83093 0 0 0 -0.89394,-0.83776l-2.37604,0a0.90349,0.83093 0 0 0 -0.89394,0.83776l0,17.62528a1.59252,1.46462 0 0 1 -0.72725,1.27618c-0.62639,0.35151 -1.53625,0.2773 -2.5629,-0.20993l-4.14692,-2.29555a0.11678,0.10741 0 0 1 -0.05096,-0.08983l0,-17.92114a0.14014,0.12889 0 0 1 0.06264,-0.1035l16.12056,-9.08067a0.08706,0.08007 0 0 1 0.0775,0l16.13012,9.08067a0.14227,0.13084 0 0 1 0.05839,0.10741l0,17.91723a0.1359,0.12498 0 0 1 -0.04778,0.09764l-16.14392,8.85121a0.12953,0.11912 0 0 1 -0.08493,0l-4.12251,-2.25161a0.82811,0.7616 0 0 0 -0.8313,-0.04003l-0.0361,0.01953c-1.13812,0.62002 -1.44389,0.78113 -2.4992,1.1346c-0.17199,0.05761 -0.57649,0.19528 -0.61153,0.56339s0.34929,0.62979 0.69115,0.81238l5.51012,3.11184a3.78702,3.48288 0 0 0 1.94288,0.49504l0.06158,0a3.80825,3.5024 0 0 0 1.89298,-0.49504l16.5017,-9.09336a4.07367,3.74651 0 0 0 1.93651,-3.20557l0,-18.17793a4.05668,3.73088 0 0 0 -1.93651,-3.19874z"/>
   <path fill="#68a063" stroke="null" d="m34.05897,33.55752c-3.95901,0 -4.80304,-1.01743 -5.0536,-2.65976a0.895,0.82312 0 0 0 -0.8727,-0.71474l-2.10213,0a0.89606,0.82409 0 0 0 -0.87695,0.83776c0,1.42361 0.54358,6.07038 8.90962,6.07038c2.58838,0 4.74147,-0.55656 6.22463,-1.61011s2.27731,-2.58653 2.27731,-4.4134c0,-3.66644 -2.60112,-4.6702 -7.72373,-5.32635c-5.20754,-0.66592 -5.20754,-1.00473 -5.20754,-1.74681c0,-0.5341 0,-1.78489 3.76472,-1.78489c2.67862,0 4.11295,0.31148 4.5716,1.95283a0.8865,0.81531 0 0 0 0.85571,0.65127l2.10956,0a0.87482,0.80457 0 0 0 0.654,-0.27925a0.94596,0.86999 0 0 0 0.22508,-0.62881c-0.27285,-3.47116 -3.03216,-5.23164 -8.41276,-5.23164c-4.8901,0 -7.80866,2.02606 -7.80866,5.41911c0,3.72014 3.02473,4.77174 7.56872,5.20723c5.3084,0.50481 5.3084,1.24102 5.3084,1.89132c0.00319,1.01352 -0.4544,2.36586 -4.41128,2.36586z"/>
  </g>
  <text stroke="#000" font-style="normal" xml:space="preserve" text-anchor="start" font-family="'Kufam'" font-size="30" id="svg_5" y="34.86062" x="56" stroke-width="0" fill="#f9fafe">NODEjs</text>
 </g>

</svg>